<svg width="23" height="22" fill="none" xmlns="http://www.w3.org/2000/svg"><path d="M11.009 5.118c-3.124 0-5.643 2.404-5.643 5.386 0 2.98 2.52 5.386 5.643 5.386 3.123 0 5.642-2.405 5.642-5.386 0-2.982-2.52-5.386-5.642-5.386Zm0 8.887c-2.019 0-3.669-1.57-3.669-3.502 0-1.93 1.645-3.501 3.669-3.501 2.023 0 3.668 1.57 3.668 3.502 0 1.93-1.65 3.501-3.668 3.501Zm7.189-9.108c0 .699-.59 1.257-1.316 1.257-.732 0-1.316-.563-1.316-1.257 0-.693.589-1.256 1.316-1.256.727 0 1.316.563 1.316 1.256Zm3.737 1.275C21.85 4.49 21.449 3 20.157 1.771 18.871.543 17.31.158 15.547.074c-1.818-.099-7.264-.099-9.08 0-1.759.08-3.32.464-4.612 1.692C.564 2.994.165 4.485.077 6.168c-.103 1.734-.103 6.932 0 8.667.084 1.683.487 3.173 1.778 4.401 1.292 1.229 2.848 1.613 4.611 1.697 1.817.099 7.263.099 9.08 0 1.763-.08 3.325-.464 4.611-1.697 1.287-1.228 1.69-2.718 1.778-4.401.103-1.735.103-6.928 0-8.663Zm-2.347 10.524c-.383.918-1.125 1.626-2.092 1.997-1.449.548-4.886.421-6.487.421s-5.044.122-6.487-.421a3.634 3.634 0 0 1-2.092-1.997c-.575-1.383-.442-4.664-.442-6.193 0-1.528-.128-4.814.442-6.192.383-.918 1.124-1.626 2.092-1.997 1.448-.548 4.886-.421 6.487-.421 1.6 0 5.043-.122 6.487.421a3.634 3.634 0 0 1 2.092 1.997c.574 1.383.442 4.664.442 6.193 0 1.528.132 4.814-.442 6.192Z" fill="#000"/></svg>