<svg width="48" height="52" fill="none" xmlns="http://www.w3.org/2000/svg"><path d="M47.2 33.965 33.605 26 47.2 18.035a1.639 1.639 0 0 0 .586-2.22l-3.202-5.63a1.588 1.588 0 0 0-2.187-.595l-13.593 7.965V1.625C28.803.727 28.086 0 27.202 0h-6.404c-.884 0-1.601.727-1.601 1.625v15.931L5.604 9.591a1.588 1.588 0 0 0-2.187.595L.215 15.814a1.639 1.639 0 0 0 .586 2.22L14.394 26 .8 33.965a1.639 1.639 0 0 0-.586 2.22l3.202 5.63a1.59 1.59 0 0 0 2.187.596l13.593-7.966v15.93c0 .898.717 1.625 1.601 1.625h6.404c.884 0 1.601-.727 1.601-1.625V34.444l13.593 7.965a1.587 1.587 0 0 0 2.187-.595l3.202-5.63c.442-.776.18-1.77-.586-2.218Z" fill="#CC36A2"/></svg>