<svg width="22" height="20" fill="none" xmlns="http://www.w3.org/2000/svg"><path d="M19.739 4.858c.014.213.014.426.014.64 0 6.502-4.537 13.994-12.83 13.994-2.554 0-4.927-.807-6.923-2.208.363.046.712.061 1.089.061 2.108 0 4.048-.776 5.598-2.101-1.983-.046-3.644-1.462-4.216-3.412.279.046.558.077.851.077.405 0 .81-.061 1.187-.168C2.443 11.284.893 9.305.893 6.914v-.061a4.26 4.26 0 0 0 2.038.624C1.717 6.594.921 5.087.921 3.381c0-.914.224-1.752.614-2.483 2.22 2.985 5.556 4.934 9.297 5.148a6.037 6.037 0 0 1-.111-1.127C10.72 2.209 12.73 0 15.23 0c1.298 0 2.47.594 3.294 1.553A8.441 8.441 0 0 0 21.386.365c-.335 1.143-1.047 2.102-1.982 2.711A8.453 8.453 0 0 0 22 2.315a10.22 10.22 0 0 1-2.261 2.543Z" fill="#000"/></svg>